<svg data-v-1084b650="" xmlns="http://www.w3.org/2000/svg" viewBox="0 0 300 300"><!----> <!----> <rect data-v-1084b650="" fill="#2F3033" x="0" y="0" width="300px" height="300px" class="logo-background-square"></rect> <!----> <!----> <g data-v-1084b650="" id="01658d57-e1c7-d49e-14b8-68883344bbab" fill="#3F96D0" stroke="none" transform="matrix(0.7999999999999998,0,0,0.7999999999999998,31.009127044677754,40.565997314453156)"><svg xmlns="http://www.w3.org/2000/svg" xmlns:xlink="http://www.w3.org/1999/xlink" version="1.1" x="0px" y="0px" viewBox="0 0 100 100" enable-background="new 0 0 100 100" xml:space="preserve"><path d="M23.142,29.604c-0.403-0.403-1.074-0.382-1.439,0.055c-4.876,5.84-7.605,12.865-8.181,20.034  c-0.045,0.564,0.413,1.044,0.978,1.044h27.422c0.868,0,1.303-1.049,0.689-1.663L23.142,29.604z M47.031,45.629V17.897  c0-0.569-0.487-1.028-1.054-0.977c-7.203,0.649-14.247,3.468-20.066,8.466c-0.428,0.368-0.444,1.031-0.045,1.43l19.502,19.502  C45.981,46.932,47.031,46.497,47.031,45.629z M52.592,46.318l19.711-19.711c0.402-0.402,0.383-1.07-0.052-1.436  c-5.898-4.969-13.02-7.73-20.281-8.288c-0.563-0.043-1.041,0.414-1.041,0.979v27.768C50.929,46.497,51.978,46.932,52.592,46.318z   M75.071,29.351L55.348,49.074c-0.614,0.614-0.179,1.663,0.689,1.663h27.882c0.566,0,1.023-0.481,0.978-1.044  c-0.583-7.274-3.381-14.403-8.393-20.293C76.137,28.968,75.471,28.951,75.071,29.351z M49.575,7.917  c-24.454,0-44.406,19.584-45.031,43.891c-0.014,0.561,0.448,1.026,1.009,1.026h2.859c0.543,0,0.977-0.435,0.992-0.978  c0.597-21.643,18.386-39.067,40.171-39.067c21.764,0,39.539,17.392,40.168,39.006c0.016,0.542,0.449,0.977,0.992,0.977h2.871  c0.562,0,1.024-0.465,1.009-1.027C93.958,27.465,74.008,7.917,49.575,7.917z M15.167,77.778c0,3.038,2.462,5.5,5.5,5.5  c3.038,0,5.5-2.462,5.5-5.5c0-3.038-5.438-15.821-5.5-15.667C20.646,62.163,15.167,74.74,15.167,77.778z M72.417,77.778  c0,3.038,2.462,5.5,5.5,5.5c3.038,0,5.5-2.462,5.5-5.5c0-3.038-5.438-15.821-5.5-15.667C77.896,62.163,72.417,74.74,72.417,77.778z   M43.792,77.778c0,3.038,2.462,5.5,5.5,5.5c3.038,0,5.5-2.462,5.5-5.5c0-3.038-5.438-15.821-5.5-15.667  C49.271,62.163,43.792,74.74,43.792,77.778z"></path></svg></g></svg>