<svg data-v-1084b650="" xmlns="http://www.w3.org/2000/svg" viewBox="0 0 300 300"><g data-v-1084b650="" id="98c8a454-6d14-78a3-90a1-51ec019c5bc4" fill="#2F3033" transform="matrix(2.2,0,0,2.2,99.23922080993651,127.4500002861023)"><path d="M1.29 14.08L2.94 14.08L2.94 11.13L5.19 11.13C7.66 11.13 9.07 9.84 9.07 7.63C9.07 5.50 7.66 4.28 5.19 4.28L1.29 4.28ZM2.94 9.65L2.94 5.77L5.12 5.77C6.64 5.77 7.49 6.38 7.49 7.67C7.49 9.00 6.64 9.65 5.12 9.65ZM10.37 11.27C10.37 13.05 11.40 14.14 13.10 14.14C14.32 14.13 15.26 13.66 15.76 12.63L15.76 14.08L17.37 14.08L17.37 6.64L15.76 6.64L15.76 10.30C15.76 11.61 15.01 12.60 13.72 12.63C12.64 12.63 11.98 11.94 11.98 10.82L11.98 6.64L10.37 6.64ZM19.82 14.08L21.43 14.08L21.43 3.70L19.82 3.70ZM23.95 16.80L25.56 16.80L25.56 12.80C26.11 13.66 27.01 14.14 28.20 14.14C30.32 14.14 31.72 12.61 31.72 10.39C31.72 8.12 30.28 6.58 28.17 6.58C27.01 6.58 26.11 7.06 25.56 7.92L25.56 6.64L23.95 6.64ZM25.56 10.33C25.56 8.93 26.50 7.92 27.83 7.92C29.16 7.92 30.10 8.95 30.10 10.33C30.10 11.76 29.16 12.77 27.83 12.77C26.50 12.77 25.56 11.77 25.56 10.33ZM36.19 12.59C37.20 13.51 38.65 14.14 40.19 14.14C42.35 14.14 43.89 13.06 43.89 11.31C43.90 7.78 38.61 8.93 38.61 6.79C38.61 6.13 39.24 5.77 40.21 5.77C40.95 5.77 42.01 6.03 43.08 6.68L43.76 5.22C42.85 4.62 41.61 4.21 40.33 4.21C38.21 4.21 36.76 5.26 36.76 6.94C36.76 10.43 42.06 9.21 42.06 11.40C42.06 12.15 41.37 12.59 40.22 12.59C39.17 12.59 37.91 12.08 36.90 11.16ZM45.79 16.80L47.40 16.80L47.40 12.80C47.95 13.66 48.85 14.14 50.04 14.14C52.16 14.14 53.56 12.61 53.56 10.39C53.56 8.12 52.12 6.58 50.01 6.58C48.85 6.58 47.95 7.06 47.40 7.92L47.40 6.64L45.79 6.64ZM47.40 10.33C47.40 8.93 48.34 7.92 49.67 7.92C51.00 7.92 51.94 8.95 51.94 10.33C51.94 11.76 51.00 12.77 49.67 12.77C48.34 12.77 47.40 11.77 47.40 10.33ZM54.54 10.36C54.54 12.60 56.13 14.14 58.44 14.14C60.73 14.14 62.31 12.60 62.31 10.36C62.31 8.11 60.73 6.58 58.44 6.58C56.13 6.58 54.54 8.11 54.54 10.36ZM56.15 10.37C56.15 8.95 57.09 7.97 58.44 7.97C59.77 7.97 60.70 8.95 60.70 10.37C60.70 11.82 59.77 12.80 58.44 12.80C57.09 12.80 56.15 11.82 56.15 10.37ZM63.99 14.08L65.60 14.08L65.60 10.19C65.73 8.92 66.68 8.04 68.18 8.12L68.18 6.58C67.00 6.58 66.11 7.11 65.60 8.12L65.60 6.64L63.99 6.64ZM68.75 8.12L69.80 8.12L69.80 11.98C69.80 13.51 70.77 14.15 71.89 14.15C72.52 14.15 73.14 13.96 73.72 13.61L73.32 12.38C72.88 12.59 72.53 12.70 72.20 12.70C71.69 12.70 71.40 12.46 71.40 11.69L71.40 8.12L73.60 8.12L73.60 6.92L71.40 6.92L71.40 4.87L69.80 4.87L69.80 6.92L68.75 6.92ZM74.31 13.10C75.05 13.78 76.22 14.14 77.31 14.14C78.81 14.14 80.16 13.45 80.16 11.93C80.18 9.23 76.22 9.97 76.22 8.60C76.22 8.06 76.68 7.85 77.31 7.85C77.97 7.85 78.79 8.11 79.45 8.51L80.04 7.32C79.37 6.85 78.37 6.57 77.43 6.57C76.01 6.57 74.69 7.21 74.69 8.72C74.68 11.41 78.60 10.56 78.60 12.08C78.60 12.64 78.06 12.88 77.38 12.88C76.57 12.88 75.53 12.53 74.89 11.96Z"></path></g><g data-v-1084b650="" id="62959d9f-a57f-4a3e-1ac3-b2fb6d720a34" stroke="none" fill="#3F96D0" transform="matrix(0.19121294665177707,0,0,0.19121294665177707,36.13215170065512,123.84350235324763)"><svg xmlns="http://www.w3.org/2000/svg" xmlns:xlink="http://www.w3.org/1999/xlink" version="1.1" x="0px" y="0px" viewBox="0 0 100 100" enable-background="new 0 0 100 100" xml:space="preserve"><path d="M23.142,29.604c-0.403-0.403-1.074-0.382-1.439,0.055c-4.876,5.84-7.605,12.865-8.181,20.034  c-0.045,0.564,0.413,1.044,0.978,1.044h27.422c0.868,0,1.303-1.049,0.689-1.663L23.142,29.604z M47.031,45.629V17.897  c0-0.569-0.487-1.028-1.054-0.977c-7.203,0.649-14.247,3.468-20.066,8.466c-0.428,0.368-0.444,1.031-0.045,1.43l19.502,19.502  C45.981,46.932,47.031,46.497,47.031,45.629z M52.592,46.318l19.711-19.711c0.402-0.402,0.383-1.07-0.052-1.436  c-5.898-4.969-13.02-7.73-20.281-8.288c-0.563-0.043-1.041,0.414-1.041,0.979v27.768C50.929,46.497,51.978,46.932,52.592,46.318z   M75.071,29.351L55.348,49.074c-0.614,0.614-0.179,1.663,0.689,1.663h27.882c0.566,0,1.023-0.481,0.978-1.044  c-0.583-7.274-3.381-14.403-8.393-20.293C76.137,28.968,75.471,28.951,75.071,29.351z M49.575,7.917  c-24.454,0-44.406,19.584-45.031,43.891c-0.014,0.561,0.448,1.026,1.009,1.026h2.859c0.543,0,0.977-0.435,0.992-0.978  c0.597-21.643,18.386-39.067,40.171-39.067c21.764,0,39.539,17.392,40.168,39.006c0.016,0.542,0.449,0.977,0.992,0.977h2.871  c0.562,0,1.024-0.465,1.009-1.027C93.958,27.465,74.008,7.917,49.575,7.917z M15.167,77.778c0,3.038,2.462,5.5,5.5,5.5  c3.038,0,5.5-2.462,5.5-5.5c0-3.038-5.438-15.821-5.5-15.667C20.646,62.163,15.167,74.74,15.167,77.778z M72.417,77.778  c0,3.038,2.462,5.5,5.5,5.5c3.038,0,5.5-2.462,5.5-5.5c0-3.038-5.438-15.821-5.5-15.667C77.896,62.163,72.417,74.74,72.417,77.778z   M43.792,77.778c0,3.038,2.462,5.5,5.5,5.5c3.038,0,5.5-2.462,5.5-5.5c0-3.038-5.438-15.821-5.5-15.667  C49.271,62.163,43.792,74.74,43.792,77.778z"></path></svg></g></svg>
